<svg width="256" height="256" viewBox="0 0 256 256" xmlns="http://www.w3.org/2000/svg">
  <defs>
    <linearGradient id="g" x1="0" y1="0" x2="1" y2="1">
      <stop offset="0%" stop-color="#1E87C9"/>
      <stop offset="100%" stop-color="#3B45CC"/>
    </linearGradient>
  </defs>
  <circle cx="128" cy="128" r="110" fill="url(#g)"/>
  <path d="M86 120 c0 -22 18 -40 40 -40 v20 c-12 0 -20 8 -20 20 v30 c0 12 -8 20 -20 20 h-10 c-12 0 -20 -8 -20 -20 v-10 c0 -12 8 -20 20 -20 Z"
        fill="none" stroke="white" stroke-width="14" stroke-linejoin="round"/>
  <path d="M150 120 c0 -22 18 -40 40 -40 v20 c-12 0 -20 8 -20 20 v30 c0 12 -8 20 -20 20 h-10 c-12 0 -20 -8 -20 -20 v-10 c0 -12 8 -20 20 -20 Z"
        fill="none" stroke="white" stroke-width="14" stroke-linejoin="round"/>
</svg>
